<svg width="32" height="32" viewBox="0 0 32 32" fill="none" xmlns="http://www.w3.org/2000/svg">
  <rect width="32" height="32" rx="4" fill="#111827"/>
  <rect x="1" y="1" width="30" height="30" rx="3" stroke="#10b981" stroke-width="0.5"/>
  
  <!-- Terminal window header -->
  <rect x="2" y="2" width="28" height="6" fill="#1f2937"/>
  <circle cx="5" cy="5" r="1" fill="#ef4444"/>
  <circle cx="8" cy="5" r="1" fill="#f59e0b"/>
  <circle cx="11" cy="5" r="1" fill="#10b981"/>
  
  <!-- Terminal content -->
  <rect x="3" y="10" width="2" height="1" fill="#10b981"/>
  <rect x="6" y="10" width="8" height="1" fill="#10b981"/>
  
  <rect x="3" y="13" width="2" height="1" fill="#3b82f6"/>
  <rect x="6" y="13" width="12" height="1" fill="#3b82f6"/>
  
  <rect x="3" y="16" width="2" height="1" fill="#8b5cf6"/>
  <rect x="6" y="16" width="6" height="1" fill="#8b5cf6"/>
  
  <rect x="3" y="19" width="2" height="1" fill="#10b981"/>
  <rect x="6" y="19" width="4" height="1" fill="#10b981"/>
  <rect x="11" y="19" width="1" height="1" fill="#10b981" opacity="0.7"/>
  
  <!-- Network icon overlay -->
  <g transform="translate(18, 20)">
    <circle cx="2" cy="2" r="1" fill="#10b981" opacity="0.8"/>
    <circle cx="6" cy="2" r="1" fill="#10b981" opacity="0.8"/>
    <circle cx="10" cy="2" r="1" fill="#10b981" opacity="0.8"/>
    <line x1="2" y1="2" x2="6" y2="2" stroke="#10b981" stroke-width="0.5" opacity="0.6"/>
    <line x1="6" y1="2" x2="10" y2="2" stroke="#10b981" stroke-width="0.5" opacity="0.6"/>
  </g>
</svg>